<svg xmlns="http://www.w3.org/2000/svg" xmlns:xlink="http://www.w3.org/1999/xlink" width="500" zoomAndPan="magnify" viewBox="0 0 375 374.999991" height="500" preserveAspectRatio="xMidYMid meet" version="1.0"><defs><g/></defs><g fill="#c2185b" fill-opacity="1"><g transform="translate(31.12393, 202.846876)"><g><path d="M 34.515625 -5.046875 C 32.722656 -3.253906 30.644531 -1.847656 28.28125 -0.828125 C 25.914062 0.191406 23.367188 0.703125 20.640625 0.703125 C 17.953125 0.703125 15.414062 0.191406 13.03125 -0.828125 C 10.65625 -1.847656 8.578125 -3.242188 6.796875 -5.015625 C 5.023438 -6.796875 3.628906 -8.878906 2.609375 -11.265625 C 1.585938 -13.648438 1.078125 -16.1875 1.078125 -18.875 C 1.078125 -21.5625 1.585938 -24.097656 2.609375 -26.484375 C 3.628906 -28.867188 5.023438 -30.945312 6.796875 -32.71875 C 8.578125 -34.488281 10.65625 -35.882812 13.03125 -36.90625 C 15.414062 -37.925781 17.953125 -38.4375 20.640625 -38.4375 C 23.367188 -38.4375 25.914062 -37.925781 28.28125 -36.90625 C 30.644531 -35.882812 32.722656 -34.476562 34.515625 -32.6875 L 29.953125 -28.125 C 28.691406 -29.375 27.269531 -30.328125 25.6875 -30.984375 C 24.113281 -31.648438 22.429688 -31.984375 20.640625 -31.984375 C 18.890625 -31.984375 17.222656 -31.648438 15.640625 -30.984375 C 14.066406 -30.328125 12.648438 -29.375 11.390625 -28.125 C 10.140625 -26.863281 9.179688 -25.441406 8.515625 -23.859375 C 7.859375 -22.285156 7.53125 -20.625 7.53125 -18.875 C 7.53125 -17.113281 7.859375 -15.4375 8.515625 -13.84375 C 9.179688 -12.25 10.140625 -10.820312 11.390625 -9.5625 C 12.648438 -8.3125 14.066406 -7.363281 15.640625 -6.71875 C 17.222656 -6.070312 18.890625 -5.75 20.640625 -5.75 C 22.429688 -5.75 24.113281 -6.070312 25.6875 -6.71875 C 27.269531 -7.363281 28.691406 -8.3125 29.953125 -9.5625 Z M 34.515625 -5.046875 "/></g></g></g><g fill="#c2185b" fill-opacity="1"><g transform="translate(66.166894, 202.846876)"><g><path d="M 29.46875 -26.9375 L 29.46875 0 L 23.015625 0 L 23.015625 -13.4375 C 23.015625 -15.59375 22.257812 -17.421875 20.75 -18.921875 C 19.25 -20.429688 17.421875 -21.1875 15.265625 -21.1875 C 14.222656 -21.1875 13.226562 -20.988281 12.28125 -20.59375 C 11.332031 -20.195312 10.5 -19.640625 9.78125 -18.921875 C 8.28125 -17.421875 7.53125 -15.59375 7.53125 -13.4375 C 7.53125 -11.320312 8.28125 -9.515625 9.78125 -8.015625 C 10.5 -7.253906 11.332031 -6.6875 12.28125 -6.3125 C 13.226562 -5.9375 14.222656 -5.75 15.265625 -5.75 C 16.335938 -5.75 17.304688 -5.929688 18.171875 -6.296875 L 20.484375 -0.53125 C 18.835938 0.289062 16.921875 0.703125 14.734375 0.703125 C 12.765625 0.703125 10.945312 0.335938 9.28125 -0.390625 C 7.613281 -1.128906 6.171875 -2.144531 4.953125 -3.4375 C 3.734375 -4.726562 2.78125 -6.234375 2.09375 -7.953125 C 1.414062 -9.671875 1.078125 -11.5 1.078125 -13.4375 C 1.078125 -15.414062 1.414062 -17.265625 2.09375 -18.984375 C 2.78125 -20.703125 3.734375 -22.207031 4.953125 -23.5 C 6.171875 -24.789062 7.613281 -25.800781 9.28125 -26.53125 C 10.945312 -27.269531 12.765625 -27.640625 14.734375 -27.640625 C 16.484375 -27.640625 18.039062 -27.367188 19.40625 -26.828125 C 20.769531 -26.285156 21.972656 -25.601562 23.015625 -24.78125 L 23.015625 -26.9375 Z M 29.46875 -26.9375 "/></g></g></g><g fill="#c2185b" fill-opacity="1"><g transform="translate(97.501325, 202.846876)"><g><path d="M 8.328125 -24.84375 C 9.335938 -25.664062 10.476562 -26.34375 11.75 -26.875 C 13.019531 -27.414062 14.460938 -27.6875 16.078125 -27.6875 L 16.078125 -21.234375 C 13.921875 -21.234375 12.09375 -20.484375 10.59375 -18.984375 C 9.082031 -17.398438 8.328125 -15.570312 8.328125 -13.5 L 8.328125 0 L 1.875 0 L 1.875 -26.9375 L 8.328125 -26.9375 Z M 8.328125 -24.84375 "/></g></g></g><g fill="#c2185b" fill-opacity="1"><g transform="translate(114.646587, 202.846876)"><g><path d="M 22.3125 -10.21875 L 8.21875 -10.21875 C 8.582031 -9.394531 9.101562 -8.660156 9.78125 -8.015625 C 10.539062 -7.253906 11.382812 -6.6875 12.3125 -6.3125 C 13.238281 -5.9375 14.222656 -5.75 15.265625 -5.75 C 16.734375 -5.75 18.039062 -6.09375 19.1875 -6.78125 L 25.921875 -4.09375 C 24.628906 -2.582031 23.066406 -1.40625 21.234375 -0.5625 C 19.410156 0.28125 17.421875 0.703125 15.265625 0.703125 C 13.296875 0.703125 11.453125 0.335938 9.734375 -0.390625 C 8.015625 -1.128906 6.507812 -2.144531 5.21875 -3.4375 C 3.925781 -4.726562 2.910156 -6.234375 2.171875 -7.953125 C 1.441406 -9.671875 1.078125 -11.5 1.078125 -13.4375 C 1.078125 -15.414062 1.441406 -17.265625 2.171875 -18.984375 C 2.910156 -20.703125 3.925781 -22.207031 5.21875 -23.5 C 6.507812 -24.789062 8.015625 -25.800781 9.734375 -26.53125 C 11.453125 -27.269531 13.296875 -27.640625 15.265625 -27.640625 C 17.234375 -27.640625 19.078125 -27.269531 20.796875 -26.53125 C 22.523438 -25.800781 24.035156 -24.789062 25.328125 -23.5 C 26.617188 -22.207031 27.628906 -20.703125 28.359375 -18.984375 C 29.097656 -17.265625 29.46875 -15.414062 29.46875 -13.4375 C 29.46875 -12.289062 29.34375 -11.21875 29.09375 -10.21875 Z M 15.265625 -21.1875 C 13.191406 -21.1875 11.363281 -20.429688 9.78125 -18.921875 C 9.101562 -18.242188 8.582031 -17.492188 8.21875 -16.671875 L 22.3125 -16.671875 C 21.957031 -17.492188 21.4375 -18.242188 20.75 -18.921875 C 19.25 -20.429688 17.421875 -21.1875 15.265625 -21.1875 Z M 15.265625 -21.1875 "/></g></g></g><g fill="#c2185b" fill-opacity="1"><g transform="translate(145.174821, 202.846876)"><g><path d="M 22.3125 -10.21875 L 8.21875 -10.21875 C 8.582031 -9.394531 9.101562 -8.660156 9.78125 -8.015625 C 10.539062 -7.253906 11.382812 -6.6875 12.3125 -6.3125 C 13.238281 -5.9375 14.222656 -5.75 15.265625 -5.75 C 16.734375 -5.75 18.039062 -6.09375 19.1875 -6.78125 L 25.921875 -4.09375 C 24.628906 -2.582031 23.066406 -1.40625 21.234375 -0.5625 C 19.410156 0.28125 17.421875 0.703125 15.265625 0.703125 C 13.296875 0.703125 11.453125 0.335938 9.734375 -0.390625 C 8.015625 -1.128906 6.507812 -2.144531 5.21875 -3.4375 C 3.925781 -4.726562 2.910156 -6.234375 2.171875 -7.953125 C 1.441406 -9.671875 1.078125 -11.5 1.078125 -13.4375 C 1.078125 -15.414062 1.441406 -17.265625 2.171875 -18.984375 C 2.910156 -20.703125 3.925781 -22.207031 5.21875 -23.5 C 6.507812 -24.789062 8.015625 -25.800781 9.734375 -26.53125 C 11.453125 -27.269531 13.296875 -27.640625 15.265625 -27.640625 C 17.234375 -27.640625 19.078125 -27.269531 20.796875 -26.53125 C 22.523438 -25.800781 24.035156 -24.789062 25.328125 -23.5 C 26.617188 -22.207031 27.628906 -20.703125 28.359375 -18.984375 C 29.097656 -17.265625 29.46875 -15.414062 29.46875 -13.4375 C 29.46875 -12.289062 29.34375 -11.21875 29.09375 -10.21875 Z M 15.265625 -21.1875 C 13.191406 -21.1875 11.363281 -20.429688 9.78125 -18.921875 C 9.101562 -18.242188 8.582031 -17.492188 8.21875 -16.671875 L 22.3125 -16.671875 C 21.957031 -17.492188 21.4375 -18.242188 20.75 -18.921875 C 19.25 -20.429688 17.421875 -21.1875 15.265625 -21.1875 Z M 15.265625 -21.1875 "/></g></g></g><g fill="#c2185b" fill-opacity="1"><g transform="translate(175.703055, 202.846876)"><g><path d="M 8.328125 -24.84375 C 9.335938 -25.664062 10.476562 -26.34375 11.75 -26.875 C 13.019531 -27.414062 14.460938 -27.6875 16.078125 -27.6875 L 16.078125 -21.234375 C 13.921875 -21.234375 12.09375 -20.484375 10.59375 -18.984375 C 9.082031 -17.398438 8.328125 -15.570312 8.328125 -13.5 L 8.328125 0 L 1.875 0 L 1.875 -26.9375 L 8.328125 -26.9375 Z M 8.328125 -24.84375 "/></g></g></g><path stroke-linecap="butt" transform="matrix(1.206525, 0, 0, 1.206525, 198.057942, 148.553251)" fill="none" stroke-linejoin="miter" d="M 23.531445 36.090761 C 23.531445 37.547683 23.291863 38.865388 22.812697 40.040638 C 22.343245 41.206175 21.666585 42.20012 20.789195 43.019233 C 19.911804 43.831872 18.84987 44.463205 17.603393 44.913232 C 16.353677 45.356783 14.95827 45.57694 13.413933 45.57694 C 10.946879 45.57694 8.745308 45.18519 6.809221 44.40169 C 4.879609 43.611715 3.293183 42.711661 2.046706 41.704766 L 5.74405 38.004185 C 6.731519 38.897764 7.829066 39.57766 9.03993 40.050351 C 9.787817 40.34821 10.487139 40.542466 11.141135 40.636357 C 11.791894 40.723772 12.326098 40.769099 12.740512 40.769099 C 13.514299 40.769099 14.223334 40.675208 14.861142 40.48419 C 15.49895 40.289933 16.055818 40.027687 16.534983 39.700689 C 17.545116 38.95604 18.046944 37.971809 18.046944 36.75447 C 18.046944 36.013059 17.778223 35.346112 17.244019 34.753631 C 16.829605 34.274465 16.295401 33.885953 15.644642 33.588093 C 15.1072 33.290234 14.540619 33.053889 13.948138 32.882296 C 13.352419 32.70099 12.818214 32.535872 12.348761 32.39018 C 12.196594 32.331903 12.057377 32.296289 11.934348 32.283339 C 11.817794 32.267151 11.717429 32.2283 11.630013 32.163548 C 11.571737 32.163548 11.481084 32.134409 11.358055 32.076132 C 10.733197 31.901302 9.833143 31.593729 8.661131 31.150178 C 7.492356 30.700151 6.326818 30.088243 5.167756 29.311219 C 2.461119 27.49816 1.111038 25.273926 1.111038 22.632042 C 1.111038 20.87726 1.415373 19.397675 2.024043 18.193287 C 2.632712 16.988898 3.425925 16.011142 4.406919 15.25678 C 5.391151 14.495943 6.482223 13.952026 7.680137 13.625028 C 8.884525 13.29803 10.066251 13.13615 11.228551 13.13615 C 13.365369 13.13615 15.165477 13.388683 16.622399 13.896986 C 18.07932 14.40529 19.238383 14.910356 20.09311 15.408947 C 20.543137 15.677669 20.925174 15.939914 21.235984 16.192448 C 21.546794 16.444981 21.82199 16.674851 22.061573 16.87882 L 18.267101 20.718618 C 17.467413 19.912454 16.651537 19.303785 15.819473 18.889372 C 14.569758 18.29689 13.265003 17.999031 11.901972 17.999031 C 11.306253 17.999031 10.710534 18.073495 10.118052 18.225663 C 9.522333 18.371355 9.001079 18.565611 8.551052 18.805194 C 7.246298 19.601644 6.592302 20.653866 6.592302 21.95862 C 6.592302 22.764783 6.861023 23.447918 7.398465 24.014499 C 7.780502 24.45805 8.314707 24.856276 8.997841 25.212412 C 9.561185 25.507034 10.156904 25.746617 10.781761 25.927922 C 11.403381 26.102753 11.98615 26.267871 12.520354 26.420038 L 13.054559 26.549542 C 13.206727 26.607819 13.488398 26.698472 13.902811 26.821501 C 14.317225 26.938055 14.806103 27.116123 15.372684 27.355706 C 15.936027 27.595288 16.554409 27.87696 17.221355 28.203958 C 17.888302 28.527718 18.548773 28.912993 19.202769 29.356545 C 22.087474 31.257018 23.531445 33.500678 23.531445 36.090761 Z M 55.020381 22.719457 L 60.644099 22.719457 L 53.103719 45.000647 L 47.447625 45.000647 L 42.727199 30.651587 L 38.003535 45.000647 L 32.38953 45.000647 L 24.852388 22.719457 L 30.476106 22.719457 L 35.196532 37.113844 L 39.920196 22.719457 L 45.57629 22.719457 L 50.296717 37.113844 Z M 62.405355 45.000647 L 62.405355 22.719457 L 67.760352 22.719457 L 67.760352 45.000647 Z M 62.405355 13.809571 L 67.760352 13.809571 L 67.760352 19.151618 L 62.405355 19.151618 Z M 83.087169 22.101075 C 84.718921 22.101075 86.224407 22.405409 87.603626 23.014079 C 88.986083 23.622748 90.183996 24.464526 91.190891 25.536172 C 92.201024 26.604582 92.987761 27.851059 93.554342 29.278842 C 94.117685 30.700151 94.402594 32.2283 94.402594 33.860052 C 94.402594 35.462666 94.117685 36.977865 93.554342 38.408885 C 92.987761 39.830194 92.201024 41.076671 91.190891 42.148318 C 90.183996 43.216727 88.986083 44.052029 87.603626 44.663936 C 86.224407 45.272606 84.718921 45.57694 83.087169 45.57694 C 81.274111 45.57694 79.681209 45.236992 78.311703 44.553858 L 80.238077 39.788105 C 80.947113 40.085964 81.750038 40.234894 82.640379 40.234894 C 83.498344 40.234894 84.310983 40.079489 85.078295 39.768679 C 85.85532 39.454631 86.554642 38.988417 87.1795 38.363559 C 88.432453 37.117081 89.060548 35.614833 89.060548 33.860052 C 89.060548 32.076132 88.432453 30.560934 87.1795 29.311219 C 85.871508 28.064741 84.359547 27.439883 82.640379 27.439883 C 80.85646 27.439883 79.341261 28.064741 78.094784 29.311219 C 76.848306 30.560934 76.223448 32.076132 76.223448 33.860052 L 76.223448 53.910533 L 70.871689 53.910533 L 70.871689 22.677368 L 76.223448 22.677368 L 76.223448 24.461288 C 77.084651 23.778153 78.078595 23.218048 79.205282 22.774496 C 80.335205 22.324469 81.630247 22.101075 83.087169 22.101075 Z M 113.779653 36.53755 L 102.108091 36.53755 C 102.402713 37.217447 102.833315 37.826117 103.390183 38.363559 C 104.01504 38.988417 104.711125 39.454631 105.478437 39.768679 C 106.255462 40.079489 107.074576 40.234894 107.939016 40.234894 C 109.156355 40.234894 110.240952 39.953222 111.18957 39.386642 L 116.761487 41.617351 C 115.693077 42.863828 114.404511 43.83511 112.889312 44.531194 C 111.370876 45.227279 109.722936 45.57694 107.939016 45.57694 C 106.307264 45.57694 104.775877 45.272606 103.348094 44.663936 C 101.926786 44.052029 100.677071 43.216727 99.605424 42.148318 C 98.537014 41.076671 97.701713 39.830194 97.093043 38.408885 C 96.481136 36.977865 96.176801 35.462666 96.176801 33.860052 C 96.176801 32.2283 96.481136 30.700151 97.093043 29.278842 C 97.701713 27.851059 98.537014 26.604582 99.605424 25.536172 C 100.677071 24.464526 101.926786 23.622748 103.348094 23.014079 C 104.775877 22.405409 106.307264 22.101075 107.939016 22.101075 C 109.577244 22.101075 111.10863 22.405409 112.529938 23.014079 C 113.957722 23.622748 115.204199 24.464526 116.272608 25.536172 C 117.344255 26.604582 118.186032 27.851059 118.794702 29.278842 C 119.403371 30.700151 119.707706 32.2283 119.707706 33.860052 C 119.707706 34.80867 119.604103 35.702249 119.393659 36.53755 Z M 107.939016 27.439883 C 106.219848 27.439883 104.70465 28.064741 103.390183 29.311219 C 102.833315 29.877799 102.402713 30.502657 102.108091 31.182554 L 113.779653 31.182554 C 113.481794 30.502657 113.051193 29.877799 112.484612 29.311219 C 111.238134 28.064741 109.722936 27.439883 107.939016 27.439883 Z M 107.939016 27.439883 " stroke="#c2185b" stroke-width="1.197765" stroke-opacity="1" stroke-miterlimit="4"/><path stroke-linecap="butt" transform="matrix(-0.793485, 0, 0, -0.793485, 365.497363, 155.708265)" fill="none" stroke-linejoin="miter" d="M 0.00159946 4.998303 L 74.061776 4.998303 " stroke="#c2185b" stroke-width="10" stroke-opacity="1" stroke-miterlimit="4"/><path stroke-linecap="butt" transform="matrix(0, -0.793485, 0.793485, 0, 358.051534, 213.911513)" fill="none" stroke-linejoin="miter" d="M 0.00171006 5.000723 L 80.299207 5.000723 " stroke="#c2185b" stroke-width="10" stroke-opacity="1" stroke-miterlimit="4"/><path stroke-linecap="butt" transform="matrix(0.749445, 0, 0, 0.749445, 11.753565, 217.821154)" fill="none" stroke-linejoin="miter" d="M 0.000455647 5.002583 L 84.432771 5.002583 " stroke="#c2185b" stroke-width="10" stroke-opacity="1" stroke-miterlimit="4"/><path stroke-linecap="butt" transform="matrix(0, 0.749445, -0.749445, 0, 19.244168, 161.269384)" fill="none" stroke-linejoin="miter" d="M 0.000196732 5.001136 L 82.462303 5.001136 " stroke="#c2185b" stroke-width="10" stroke-opacity="1" stroke-miterlimit="4"/></svg>